<svg width="21" height="20" viewBox="0 0 21 20" fill="none" xmlns="http://www.w3.org/2000/svg">
<path d="M5.54004 7.99963C4.57754 7.99963 3.79004 8.89963 3.79004 9.99963C3.79004 11.0996 4.57754 11.9996 5.54004 11.9996C6.50254 11.9996 7.29004 11.0996 7.29004 9.99963C7.29004 8.89963 6.50254 7.99963 5.54004 7.99963ZM16.04 7.99963C15.0775 7.99963 14.29 8.89963 14.29 9.99963C14.29 11.0996 15.0775 11.9996 16.04 11.9996C17.0025 11.9996 17.79 11.0996 17.79 9.99963C17.79 8.89963 17.0025 7.99963 16.04 7.99963ZM10.79 7.99963C9.82754 7.99963 9.04004 8.89963 9.04004 9.99963C9.04004 11.0996 9.82754 11.9996 10.79 11.9996C11.7525 11.9996 12.54 11.0996 12.54 9.99963C12.54 8.89963 11.7525 7.99963 10.79 7.99963Z" fill="white"/>
</svg>
