<?xml version="1.0" ?><svg enable-background="new 0 0 52 52" id="Layer_1" version="1.1" viewBox="0 0 52 52" xml:space="preserve" xmlns="http://www.w3.org/2000/svg" xmlns:xlink="http://www.w3.org/1999/xlink"><path d="M39.7753906,18.495697l-1.7061768,2.4122314l-3.1868286-2.2904053l0.0409546-0.0578613l-4.081543-2.8227539  l1.1679688-1.6240234l4.0685425,2.8137817l1.685791-2.3835449c0.0194092-0.0274048,0.0343628-0.0565796,0.0533447-0.0841675  l-4.1152954-2.7655029l1.1679688-1.6240234l3.8655396,2.5976563c1.1798096-3.2599487,0.1201782-7.053894-2.871582-9.2039795  c-1.3399658-0.960022-2.9199829-1.4700317-4.5599976-1.4700317c-1.9000244,0-3.7156372,0.6945801-5.1296997,1.914917  l3.8461304,2.6755981l-1.1679688,1.6240234l-4.0250854-2.8001099l-1.7033081,2.4117432l4.0369873,2.8078003l-1.1679688,1.6240234  l-3.1957397-2.2226563L22.84375,9.9639587l-4.0074463-2.8811646l1.7144775-2.4240112l-1.6328125-1.1552734l-5.7197266,8.0874023  c-4.2904663,6.0675049-3.0318604,14.4450073,2.7265625,18.9998169c-0.8417358,0.5273438-1.4107056,1.4580688-1.4107056,2.5223999  c0,1.2952881,0.8305054,2.3887939,1.9741821,2.8037109v12.0900879h-5.8964844v2h13.7929688v-2h-5.8964844V35.9154358  c1.1434937-0.4161377,1.9658203-1.508667,1.9658203-2.8023071c0-0.046814-0.0116577-0.0904541-0.0137939-0.1367798  c1.281311,0.3912354,2.6138916,0.5974731,3.9659424,0.5974731c0.7636719,0,1.5322266-0.0634766,2.3007813-0.1923828  c3.6494141-0.6113281,6.8398438-2.6157227,8.9814453-5.6435547l5.7197266-8.0869141L39.7753906,18.495697z M34.0556641,26.5826111  c-1.8320313,2.5898438-4.5585938,4.3037109-7.6796875,4.8261719c-3.1064453,0.5219727-6.2265625-0.2050781-8.7841797-2.043457  c-5.3056641-3.8139648-6.5439453-11.2695313-2.7607422-16.6196289l2.8500977-4.0296631l3.1899414,2.293396l-0.5455933,0.772583  l3.9752808,2.8884888l-1.1679688,1.6240234l-3.9614258-2.878418l-1.1773071,1.6669922  c-2.5199585,3.5499878-1.6900024,8.5,1.8900146,11.0800171c1.3400269,0.9599609,2.9199829,1.4699707,4.5599976,1.4699707  c2.5400391,0,4.9400024-1.2399902,6.4100342-3.3200073l1.3309326-1.8818359l-3.8989258-3.0742188l1.2050781-1.5957031  l3.8498535,3.0355225l0.3861694-0.5460205l3.1868286,2.2903442L34.0556641,26.5826111z"/></svg>